# xmcd
#
# Track frame offsets:
# 150
# 12458
# 27125
# 37338
# 47820
# 60859
# 77140
# 94026
# 106880
# 117498
# 140070
# 152885
# 169322
# 187745
#
# Disc length: 2783 seconds
#
#
# Revision: 0
# Processed by: cddbd v1.5.1PL0 Copyright (c) Steve Scherf et al.
# Submitted via: FreeRIP 2.50 
#
DISCID=b80add0e
DTITLE=Schweizer Künstler - Unvergessliche Erinnerungen
DYEAR=2005
DGENRE=Folklore
TTITLE0=Grüezi wohl Frau Stirnimaa
TTITLE1=Café au lit
TTITLE2=Dr Köbu dr Chrigu u dr Sepp
TTITLE3=Chara lingua da la mamma
TTITLE4=Guete Sunntig mitenand
TTITLE5=Kriminal Tango
TTITLE6=Amici miei
TTITLE7=O mein Papa
TTITLE8=Ein frohes Wiedersehen
TTITLE9=Le Männerchor de Steffisbourg
TTITLE10=Niene geits so schön u luschtig
TTITLE11=Potpurri Ticinese
TTITLE12=Gigi vo Arosa
TTITLE13=Vuler posseder
EXTD=Artists for Good
EXTT0=
EXTT1=
EXTT2=
EXTT3=
EXTT4=
EXTT5=
EXTT6=
EXTT7=
EXTT8=
EXTT9=
EXTT10=
EXTT11=
EXTT12=
EXTT13=
PLAYORDER=
